# xmcd CD database file
#
# Track frame offsets:
#	182
#	13980
#	24657
#	38852
#	55007
#	71057
#	85560
#	104482
#	122585
#	136535
#	149430
#	168610
#	183245
#	198757
#	210995
#	220507
#	231532
#
# Disc length: 3226 seconds
#
# Revision: 0
# Processed by: cddbd v1.4PL0 Copyright (c) Steve Scherf et al.
# Submitted via: CDex 1.51
#
DISCID=ea0c9811
DTITLE=SuperCountry - Wake Up
DYEAR=1990
DGENRE=Country
TTITLE0=Bird Dog
TTITLE1=Singin The Blues
TTITLE2=C'est la vie
TTITLE3=So Sad
TTITLE4=San Antonio Rose
TTITLE5=Bye bye Love
TTITLE6=Settin me up
TTITLE7=Black Velvet
TTITLE8=Lonsome Train
TTITLE9=Rebel Rouser
TTITLE10=Cool Water
TTITLE11=Sleepless Nights
TTITLE12=Louisville
TTITLE13=When Will I Be Loved
TTITLE14=Hey Good Looking
TTITLE15=Let's Have a party
TTITLE16=Wake up little Susie
EXTD=YEAR: 1990
EXTT0=
EXTT1=
EXTT2=
EXTT3=
EXTT4=
EXTT5=
EXTT6=
EXTT7=
EXTT8=
EXTT9=
EXTT10=
EXTT11=
EXTT12=
EXTT13=
EXTT14=
EXTT15=
EXTT16=
PLAYORDER=
